<svg xmlns="http://www.w3.org/2000/svg" viewBox="0 0 60 60"><path d="M38.914 0H6.5v60h47V14.586L38.914 0zm.586 3.414L50.086 14H39.5V3.414zM8.5 58V2h29v14h14v42h-43z"/><path d="M16.5 17h9c.552 0 1-.447 1-1s-.448-1-1-1h-9c-.552 0-1 .447-1 1s.448 1 1 1zM33.5 37h-17c-.552 0-1 .447-1 1s.448 1 1 1h17c.552 0 1-.447 1-1s-.448-1-1-1zM43.5 30h-7c-.552 0-1 .447-1 1s.448 1 1 1h7c.552 0 1-.447 1-1s-.448-1-1-1zM16.5 25h5c.552 0 1-.447 1-1s-.448-1-1-1h-5c-.552 0-1 .447-1 1s.448 1 1 1zM31.5 25h7c.552 0 1-.447 1-1s-.448-1-1-1h-7c-.552 0-1 .447-1 1s.448 1 1 1zM25.5 24c0 .26.11.52.29.71.19.18.45.29.71.29.26 0 .52-.11.71-.29.18-.19.29-.45.29-.71 0-.261-.11-.521-.29-.71-.37-.37-1.04-.37-1.42 0-.18.189-.29.449-.29.71zM21.5 30c-.552 0-1 .447-1 1s.448 1 1 1h10c.552 0 1-.447 1-1s-.448-1-1-1h-10zM16.5 32c.26 0 .52-.11.71-.29.18-.19.29-.45.29-.71 0-.261-.11-.521-.29-.71-.37-.37-1.05-.37-1.42 0-.18.189-.29.439-.29.71 0 .26.11.52.29.71.19.18.45.29.71.29zM43.5 44h-7c-.552 0-1 .447-1 1s.448 1 1 1h7c.552 0 1-.447 1-1s-.448-1-1-1zM31.5 44h-10c-.552 0-1 .447-1 1s.448 1 1 1h10c.552 0 1-.447 1-1s-.448-1-1-1zM15.79 44.29c-.18.18-.29.439-.29.71 0 .27.1.52.29.71.19.18.45.29.71.29.27 0 .52-.11.71-.29.18-.19.29-.45.29-.71 0-.271-.11-.521-.29-.7-.37-.38-1.04-.38-1.42-.01zM42.79 23.29c-.18.189-.29.449-.29.71 0 .26.11.52.29.71.19.18.45.29.71.29.26 0 .52-.11.71-.29.19-.19.29-.45.29-.71 0-.261-.1-.521-.29-.71-.38-.37-1.04-.37-1.42 0zM39.21 38.71c.18-.19.29-.45.29-.71 0-.261-.11-.521-.29-.71-.38-.37-1.05-.37-1.42 0-.18.189-.29.449-.29.71 0 .26.11.52.29.71.19.189.44.29.71.29s.52-.11.71-.29zM42.79 37.29c-.18.189-.29.449-.29.71 0 .26.11.52.29.71.19.18.44.29.71.29s.52-.11.71-.29c.18-.19.29-.45.29-.71 0-.261-.11-.521-.29-.71-.37-.37-1.05-.37-1.42 0z"/></svg>