<svg width="70" height="64" xmlns="http://www.w3.org/2000/svg"><g fill="none" fill-rule="evenodd"><path fill="#00FFDE" d="M0 4h65.625v60H0z"/><path fill="#0976F8" d="M4.375 0H70v60H4.375z"/><path d="M30.0757 41V19.6719h7.163c1.1622 0 2.2193.1172 3.1715.3515.9521.2344 1.765.5909 2.439 1.0694.6738.4785 1.1938 1.084 1.56 1.8164.3662.7324.5493 1.5967.5493 2.5928-.0098.996-.2759 1.8896-.7983 2.6806-.5225.791-1.2915 1.3916-2.3072 1.8018.6153.1562 1.1475.3906 1.5967.7031.4492.3125.8228.6812 1.1206 1.106a4.558 4.558 0 0 1 .6592 1.3916c.1416.5029.2124 1.023.2124 1.56 0 1.0254-.1758 1.9287-.5273 2.71-.3516.7812-.8545 1.4355-1.5088 1.9629-.6543.5273-1.4502.9228-2.3877 1.1865-.9375.2637-1.9922.3955-3.1641.3955h-7.7783zm4.1308-9.4043v6.0791h3.6622c1.123-.0098 1.98-.2856 2.5708-.8276.5908-.542.8862-1.2525.8862-2.1314.0097-.9765-.254-1.7383-.791-2.2851-.5371-.547-1.3672-.8252-2.4903-.835h-3.8379zm0-2.9736h3.0616c1.1426-.0098 2.0214-.249 2.6367-.7178.6152-.4688.9277-1.1572.9375-2.0654 0-.9961-.3076-1.7115-.9229-2.146-.6152-.4346-1.5039-.6568-2.666-.6665h-3.0469v5.5957z" fill="#FFF"/></g></svg>
