<svg xmlns="http://www.w3.org/2000/svg" id="Layer_1" viewBox="58.5 -12 257.5 32" width="213" height="40">
  <style>
    .st0{fill:#bbb}
  </style>
  <path d="M202.8-1.8c-1.3-1.7-3.7-2.7-6.4-2.7-3.4 0-6.8 1.6-6.8 5 0 5 8.7 6.1 8.7 8.1 0 1.5-4.9 1.6-7.3-1.1l-2 3.3c1.4 1.7 4.2 2.7 6.7 2.7 4.4 0 7.2-1.8 7.2-5.4 0-4.3-8.7-5.7-8.7-7.8 0-1.6 4.4-1.3 6.3.9l2.3-3zm2.9-9.6h4.6v24.6h-4.6v-24.6zm8.5 7.5h4.6v17h-4.6v-17zm5-5.3c0 1.7-1.3 2.8-2.6 2.8-1.5 0-2.8-1-2.8-2.8 0-1.8 1.3-2.8 2.6-2.8 1.6 0 2.8 1 2.8 2.8zm16.7 7.4L233.6 1c-.8-.9-2-1.4-3.3-1.4-2.8 0-4.3 2.4-4.3 4.9 0 2.4 1.5 4.8 4.1 4.8 1.4 0 2.8-.6 3.5-1.7l2.3 2.9c-1.1 1.8-3.5 3-6.5 3-5.4 0-8.1-4.5-8.1-8.9 0-4.5 2.7-9 8.2-9 2.6-.1 5.2 1 6.4 2.6zm40.9-2.1h4.2v17h-4.2l-.3-2.6V-1.6l.3-2.3zm.8 3.1l-1.1 2.4c-1-1-2.3-1.9-3.8-1.9-2.5 0-3.7 2.3-3.7 4.8 0 3.4 1.9 4.8 4 4.8 1.3 0 2.8-.9 3.6-2.3l1.8.8c-1.3 3.6-3.3 5.8-6.6 5.8-4.4 0-7.3-3.9-7.3-8.9 0-5.4 3.3-9 7.5-9 2.3-.2 4.3 1.3 5.6 3.5zm20.6-1L295.9 1c-.8-.9-2-1.4-3.3-1.4-2.8 0-4.3 2.4-4.3 4.9 0 2.4 1.5 4.8 4.1 4.8 1.4 0 2.8-.6 3.5-1.7l2.3 2.9c-1.1 1.8-3.5 3-6.5 3-5.4 0-8.1-4.5-8.1-8.9 0-4.5 2.7-9 8.2-9 2.7-.1 5.2 1 6.4 2.6zm-38.9-2.1h4.6L256.2 20h-4.6l7.7-23.9zm2.7-5.3c0 1.7-1.3 2.8-2.6 2.8-1.5 0-2.8-1-2.8-2.8 0-1.8 1.3-2.8 2.6-2.8 1.5 0 2.8 1 2.8 2.8zm38.4-2.2h4.6v24.6h-4.6v-24.6zm3.8 14.1l6.5-.9-.6 3.6-6.9 1 1-3.7zm2.4.2l4-6.8h5l-5.4 8.6-3.6-1.8zm-.9 2.1l4.3-1.1 6 9.2h-5.1L305.7 5zm-57.3-2.1c.3-1.8-.7-3.6-3-3.6-2.2 0-3.7 1.5-3.7 3.6V3c0 .5-.2 1-.2 1.4 0 3.4 2.1 5 4.3 5 1.4 0 3.3-.6 4.3-1.8l2.2 2.9c-1.6 1.9-4 3-6.8 3-4.3 0-8.6-2.6-8.6-8.9 0-6.1 4.2-9 8.3-9 4.5 0 7.7 2.8 7.7 7.7 0 .9-.3 1.9-.8 2.6l-11.7.3V3l8.7-.2-.8.7.1-.6z" class="st0"/>
  <path fill="#bdbdbd" d="M167.9 1.5h4.3v3h-4.3v4.8h-3.1V4.5h-4.3v-3h4.3v-4.6h3.1v4.6z"/>
  <g>
    <path d="M58.5-8.8h10.8c1.9 0 3.3.5 4.3 1.6 1 1 1.6 2.4 1.6 4.2 0 .9-.1 1.6-.3 2.2-.2.6-.5 1.1-.9 1.5-.4.4-.8.7-1.3.8s-1 .3-1.6.3V2c.5 0 1.1.1 1.7.3.6.2 1.1.5 1.6.9s.9 1 1.2 1.6c.3.7.5 1.5.5 2.4 0 .9-.1 1.7-.4 2.5-.3.8-.7 1.5-1.2 2-.5.6-1.1 1-1.8 1.4-.7.3-1.5.5-2.3.5H58.5V-8.8zM63.3.3h4.8c.6 0 1.1-.2 1.5-.5.4-.4.5-.9.5-1.5v-1c0-.6-.2-1.1-.5-1.5-.4-.4-.9-.5-1.5-.5h-4.8v5zm0 9.1h5.6c.6 0 1.1-.2 1.5-.5.4-.4.6-.9.6-1.5V6.3c0-.6-.2-1.1-.6-1.5-.4-.4-.9-.5-1.5-.5h-5.6v5.1z" class="st0"/>
    <path d="M86.4 13.9c-1.2 0-2.3-.2-3.3-.6-1-.4-1.8-1-2.5-1.8S79.4 9.8 79 8.7s-.5-2.3-.5-3.6c0-1.3.2-2.6.5-3.6s.9-2 1.6-2.8c.7-.8 1.5-1.3 2.5-1.7 1-.4 2.1-.6 3.3-.6s2.3.2 3.3.6c1 .4 1.8 1 2.5 1.7.7.8 1.2 1.7 1.6 2.8.4 1.1.5 2.3.5 3.6 0 1.3-.2 2.6-.5 3.6-.4 1.1-.9 2-1.6 2.8-.7.8-1.5 1.4-2.5 1.8-1 .4-2.1.6-3.3.6zm0-3.7c.9 0 1.7-.3 2.2-.9.5-.6.8-1.4.8-2.5V3.4c0-1.1-.3-1.9-.8-2.5-.5-.6-1.2-.9-2.2-.9-.9 0-1.7.3-2.2.9-.5.6-.8 1.4-.8 2.5v3.4c0 1.1.3 1.9.8 2.5.5.6 1.2.9 2.2.9z" class="st0"/>
    <path d="M97.6-3.3h4.7v18.6c0 1.5-.4 2.6-1.1 3.4-.7.8-2 1.2-3.6 1.2h-2.5v-3.7h2.5V-3.3zm2.4-1.8c-1 0-1.7-.2-2.1-.7-.4-.4-.7-1-.7-1.7v-.7c0-.7.2-1.2.7-1.7.4-.4 1.1-.7 2.1-.7s1.7.2 2.1.7c.4.4.7 1 .7 1.7v.7c0 .7-.2 1.2-.7 1.7-.5.5-1.2.7-2.1.7z" class="st0"/>
    <path d="M111.5 13.5c-1.6 0-2.8-.4-3.6-1.2-.8-.8-1.1-1.9-1.1-3.4v-19.1h4.7v20h2.1v3.7h-2.1z" class="st0"/>
    <path d="M123.5 13.9c-1.3 0-2.4-.2-3.4-.6-1-.4-1.9-1-2.5-1.8-.7-.8-1.2-1.7-1.6-2.8s-.5-2.3-.5-3.6c0-1.3.2-2.5.5-3.6s.8-2 1.5-2.8c.7-.8 1.5-1.4 2.5-1.8 1-.4 2.1-.6 3.4-.6 1.4 0 2.6.2 3.6.7 1 .5 1.8 1.1 2.4 1.9.6.8 1.1 1.7 1.4 2.7.3 1 .4 2.1.4 3.2v1.4h-10.8v.3c0 1.1.3 2 .9 2.6s1.5 1 2.8 1c1 0 1.8-.2 2.4-.6.6-.4 1.2-.9 1.7-1.4l2.4 3c-.7.9-1.7 1.6-2.9 2.1-1.3.4-2.7.7-4.2.7zm-.1-14.1c-1 0-1.7.3-2.3.9-.5.6-.8 1.5-.8 2.5v.3h5.9v-.3c0-1-.2-1.9-.7-2.5-.5-.6-1.2-.9-2.1-.9z" class="st0"/>
    <path d="M134.4 13.5V-3.3h4.7V.3h.2c.1-.5.2-.9.4-1.4.2-.4.5-.8.8-1.2.4-.3.8-.6 1.3-.8.5-.2 1.1-.3 1.7-.3h.8V1h-1.2c-1.4 0-2.4.2-3.1.5-.7.4-1 1-1 2v9.8h-4.6z" class="st0"/>
  </g>
</svg>
